<svg xmlns="http://www.w3.org/2000/svg" width="142" height="33.927" viewBox="0 0 142 33.927"><defs><style>.a{fill:#03007f;}.b{fill:#fff;}</style></defs><g transform="translate(-47.735 -62.796)"><g transform="translate(47.735 62.796)"><path class="a" d="M64.709,62.8A16.963,16.963,0,1,0,81.683,79.759,16.969,16.969,0,0,0,64.709,62.8Z" transform="translate(-47.735 -62.796)"/><path class="b" d="M66.047,85.264H65.48c-1.074,0-1.66.606-1.66,1.817v5.841c0,1.5-.508,2.032-1.7,2.032a2.877,2.877,0,0,1-2.3-1.153,1.954,1.954,0,0,0-1.289,1.954c0,1.563,1.465,2.52,4.18,2.52,3.3,0,5.04-1.661,5.04-5.294v-5.9C67.747,85.87,67.161,85.264,66.047,85.264Zm5.114,2.95h-.391c-.957,0-1.68.449-1.68,1.817v6.251c0,1.387.7,1.817,1.719,1.817H71.2c.957,0,1.641-.469,1.641-1.817V90.03C72.841,88.624,72.177,88.214,71.161,88.214Zm-.215-4.532a1.746,1.746,0,0,0-1.973,1.758c0,1.094.782,1.777,2.031,1.777a1.75,1.75,0,0,0,1.973-1.777C72.978,84.346,72.2,83.682,70.947,83.682ZM79.2,88.116c-3.2,0-5.333,2.032-5.333,5.059,0,3.106,2.051,5.1,5.274,5.1,3.2,0,5.314-1.993,5.314-5.08A4.877,4.877,0,0,0,79.2,88.116ZM79.162,95.4a2.22,2.22,0,1,1,2.109-2.208A2.1,2.1,0,0,1,79.162,95.4Z" transform="translate(-54.055 -75.036)"/></g><g transform="translate(85.679 69.698)"><path class="a" d="M152.944,87.127a3.686,3.686,0,0,1-.574,2.1,4.29,4.29,0,0,1-1.7,1.416v.049a4.08,4.08,0,0,1,2.308,1.526,4.552,4.552,0,0,1,.77,2.7,4.47,4.47,0,0,1-.806,2.7,4.853,4.853,0,0,1-2.161,1.661,7.824,7.824,0,0,1-2.967.55h-8.3V82.951H147.6Q152.945,82.951,152.944,87.127Zm-4.285,2.149a1.818,1.818,0,0,0,.574-1.465q0-1.856-2.418-1.856h-3.467v3.81h3.687A2.434,2.434,0,0,0,148.659,89.276Zm.574,7.009a1.924,1.924,0,0,0,.684-1.612,2.177,2.177,0,0,0-.672-1.734,2.788,2.788,0,0,0-1.893-.586h-4v4.469h3.907A3.147,3.147,0,0,0,149.232,96.285Z" transform="translate(-139.513 -81.51)"/><path class="a" d="M183.523,100.141a4.393,4.393,0,0,0,.549,2.516,1.956,1.956,0,0,0,1.7.757,2.17,2.17,0,0,0,1.808-.769,4.054,4.054,0,0,0,.61-2.5V93.205h3.468v12.626h-3.321v-1.758h-.049a4.458,4.458,0,0,1-1.6,1.538,4.213,4.213,0,0,1-2.112.562,4.318,4.318,0,0,1-3.395-1.258,5.552,5.552,0,0,1-1.123-3.8V93.205h3.468Z" transform="translate(-163.254 -87.515)"/><path class="a" d="M221.645,96.092a1.259,1.259,0,0,0-.586-1.062,3.018,3.018,0,0,0-1.563-.33,2.681,2.681,0,0,0-1.428.305.972.972,0,0,0-.477.867,1,1,0,0,0,.269.72,2.09,2.09,0,0,0,.794.477,10.769,10.769,0,0,0,1.428.39l1.416.317a5.86,5.86,0,0,1,2.857,1.356,3.2,3.2,0,0,1,.928,2.381,3.671,3.671,0,0,1-.77,2.406,4.277,4.277,0,0,1-2.039,1.355,9.087,9.087,0,0,1-2.833.415,8.823,8.823,0,0,1-2.98-.464,4.522,4.522,0,0,1-2.039-1.38,3.464,3.464,0,0,1-.745-2.259h3.3a1.551,1.551,0,0,0,.721,1.319,3.128,3.128,0,0,0,1.77.464,2.95,2.95,0,0,0,1.539-.366,1.2,1.2,0,0,0,.61-1.1,1.289,1.289,0,0,0-.562-1.062,4.686,4.686,0,0,0-1.782-.7l-1.392-.317a8.806,8.806,0,0,1-2.259-.794,3.314,3.314,0,0,1-1.282-1.16,3.141,3.141,0,0,1-.415-1.661,3.254,3.254,0,0,1,.684-2.1,4.177,4.177,0,0,1,1.9-1.294,8.431,8.431,0,0,1,2.857-.44,6.748,6.748,0,0,1,3.871.953,3.384,3.384,0,0,1,1.477,2.759Z" transform="translate(-183.061 -87.032)"/><path class="a" d="M250.5,82.43a1.849,1.849,0,0,1-.721.7,2.277,2.277,0,0,1-2.1,0,1.847,1.847,0,0,1-.72-.7,2.082,2.082,0,0,1,0-2,1.847,1.847,0,0,1,.72-.7,2.277,2.277,0,0,1,2.1,0,1.849,1.849,0,0,1,.721.7,2.082,2.082,0,0,1,0,2Zm-.036,2.735V97.791h-3.468V85.165Z" transform="translate(-202.281 -79.475)"/><path class="a" d="M274.8,105.348h-3.468V98.412a4.391,4.391,0,0,0-.55-2.515,1.958,1.958,0,0,0-1.7-.757,2.169,2.169,0,0,0-1.808.769,4.053,4.053,0,0,0-.61,2.5v6.936H263.2V92.722h3.321V94.48h.049a4.452,4.452,0,0,1,1.6-1.538,4.208,4.208,0,0,1,2.112-.562,4.32,4.32,0,0,1,3.395,1.258,5.556,5.556,0,0,1,1.123,3.8Z" transform="translate(-211.943 -87.032)"/><path class="a" d="M309.275,99.877H300.41a3.545,3.545,0,0,0,.855,2.406,3.013,3.013,0,0,0,2.247.794,3.212,3.212,0,0,0,1.661-.391,1.6,1.6,0,0,0,.806-1h3.077a5.029,5.029,0,0,1-1.99,2.979,6.379,6.379,0,0,1-3.724,1.026,6.758,6.758,0,0,1-3.394-.818,5.475,5.475,0,0,1-2.211-2.32,7.585,7.585,0,0,1-.769-3.5,7.273,7.273,0,0,1,.794-3.407,5.952,5.952,0,0,1,2.223-2.393,6.16,6.16,0,0,1,3.26-.867,5.889,5.889,0,0,1,3.309.891,5.58,5.58,0,0,1,2.051,2.454,8.61,8.61,0,0,1,.7,3.541Zm-3.443-2.2q-.244-2.687-2.637-2.687a2.618,2.618,0,0,0-1.917.708,3.184,3.184,0,0,0-.867,1.978Z" transform="translate(-231.715 -87.032)"/><path class="a" d="M338.911,96.092a1.259,1.259,0,0,0-.586-1.062,3.016,3.016,0,0,0-1.563-.33,2.683,2.683,0,0,0-1.429.305.973.973,0,0,0-.476.867,1,1,0,0,0,.269.72,2.092,2.092,0,0,0,.794.477,10.75,10.75,0,0,0,1.428.39l1.417.317a5.86,5.86,0,0,1,2.857,1.356,3.2,3.2,0,0,1,.928,2.381,3.674,3.674,0,0,1-.77,2.406,4.279,4.279,0,0,1-2.039,1.355,9.084,9.084,0,0,1-2.833.415,8.821,8.821,0,0,1-2.979-.464,4.52,4.52,0,0,1-2.039-1.38,3.464,3.464,0,0,1-.745-2.259h3.3a1.549,1.549,0,0,0,.72,1.319,3.128,3.128,0,0,0,1.771.464,2.952,2.952,0,0,0,1.539-.366,1.2,1.2,0,0,0,.61-1.1,1.29,1.29,0,0,0-.561-1.062,4.686,4.686,0,0,0-1.783-.7l-1.392-.317a8.806,8.806,0,0,1-2.259-.794,3.314,3.314,0,0,1-1.282-1.16,3.142,3.142,0,0,1-.415-1.661,3.256,3.256,0,0,1,.684-2.1,4.18,4.18,0,0,1,1.905-1.294,8.43,8.43,0,0,1,2.857-.44,6.747,6.747,0,0,1,3.871.953,3.383,3.383,0,0,1,1.478,2.759Z" transform="translate(-251.73 -87.032)"/><path class="a" d="M370.849,96.092a1.259,1.259,0,0,0-.586-1.062,3.018,3.018,0,0,0-1.563-.33,2.681,2.681,0,0,0-1.428.305.972.972,0,0,0-.476.867,1,1,0,0,0,.269.72,2.09,2.09,0,0,0,.794.477,10.769,10.769,0,0,0,1.428.39l1.416.317a5.86,5.86,0,0,1,2.857,1.356,3.2,3.2,0,0,1,.928,2.381,3.673,3.673,0,0,1-.769,2.406,4.28,4.28,0,0,1-2.039,1.355,9.086,9.086,0,0,1-2.833.415,8.823,8.823,0,0,1-2.98-.464,4.522,4.522,0,0,1-2.039-1.38,3.464,3.464,0,0,1-.745-2.259h3.3a1.549,1.549,0,0,0,.72,1.319,3.128,3.128,0,0,0,1.77.464,2.95,2.95,0,0,0,1.539-.366,1.2,1.2,0,0,0,.61-1.1,1.289,1.289,0,0,0-.562-1.062,4.686,4.686,0,0,0-1.782-.7l-1.392-.317a8.812,8.812,0,0,1-2.259-.794,3.317,3.317,0,0,1-1.282-1.16,3.141,3.141,0,0,1-.415-1.661,3.254,3.254,0,0,1,.684-2.1,4.179,4.179,0,0,1,1.9-1.294,8.431,8.431,0,0,1,2.857-.44,6.748,6.748,0,0,1,3.871.953,3.382,3.382,0,0,1,1.477,2.759Z" transform="translate(-270.432 -87.032)"/></g></g></svg>